<svg viewBox="0 0 24 19" fill="none" xmlns="http://www.w3.org/2000/svg">
<path d="M19 6.96484C19.3516 7.03516 19.7383 7.03516 20.0898 6.96484L20.4062 7.49219C20.5117 7.66797 20.7227 7.73828 20.9336 7.66797C21.3203 7.52734 21.707 7.28125 22.0586 7.03516C22.1992 6.89453 22.2695 6.64844 22.1641 6.47266L21.8477 5.98047C22.0938 5.69922 22.3047 5.34766 22.4102 4.99609H23.0078C23.2188 4.99609 23.3945 4.85547 23.4297 4.64453C23.5 4.1875 23.5 3.76562 23.4297 3.34375C23.3945 3.13281 23.2188 2.95703 23.0078 2.95703H22.4102C22.3047 2.60547 22.0938 2.28906 21.8477 2.00781L22.1641 1.51562C22.2695 1.30469 22.1992 1.09375 22.0586 0.953125C21.707 0.671875 21.3203 0.460938 20.9336 0.285156C20.7227 0.214844 20.5117 0.285156 20.4062 0.496094L20.0898 0.988281C19.7383 0.917969 19.3516 0.917969 19 0.988281L18.6836 0.496094C18.5781 0.285156 18.3672 0.214844 18.1562 0.285156C17.7695 0.460938 17.3828 0.671875 17.0312 0.953125C16.8906 1.09375 16.8203 1.30469 16.9258 1.51562L17.2422 2.00781C16.9961 2.28906 16.7852 2.60547 16.6797 2.95703H16.082C15.8711 2.95703 15.6953 3.13281 15.6602 3.34375C15.5898 3.76562 15.5898 4.22266 15.6602 4.64453C15.6953 4.85547 15.8711 4.99609 16.082 4.99609H16.6797C16.7852 5.34766 16.9961 5.69922 17.2422 5.98047L16.9258 6.47266C16.8203 6.64844 16.8906 6.89453 17.0312 7.03516C17.3828 7.28125 17.7695 7.52734 18.1562 7.66797C18.3672 7.73828 18.5781 7.66797 18.6836 7.49219L19 6.96484ZM18.6133 4.92578C17.5938 3.55469 19.1055 2.00781 20.4766 3.0625C21.5312 4.39844 19.9844 5.94531 18.6133 4.92578ZM14.5703 10.3398C14.7109 9.60156 14.7109 8.82812 14.5703 8.08984L15.7656 7.49219C16.1172 7.28125 16.2578 6.85938 16.1172 6.47266C15.8008 5.62891 15.2031 4.85547 14.6055 4.15234C14.3594 3.83594 13.9023 3.76562 13.5508 3.97656L12.5312 4.57422C11.9688 4.08203 11.3008 3.69531 10.5977 3.44922V2.28906C10.5977 1.86719 10.3164 1.51562 9.89453 1.44531C9.01562 1.30469 8.10156 1.30469 7.22266 1.44531C6.83594 1.51562 6.55469 1.86719 6.55469 2.28906V3.44922C5.81641 3.69531 5.18359 4.08203 4.62109 4.57422L3.60156 3.97656C3.21484 3.76562 2.79297 3.87109 2.51172 4.15234C1.94922 4.85547 1.35156 5.62891 1.03516 6.47266C0.894531 6.85938 1.03516 7.28125 1.42188 7.49219L2.58203 8.08984C2.44141 8.82812 2.44141 9.60156 2.58203 10.3398L1.42188 10.9023C1.03516 11.1133 0.894531 11.5703 1.03516 11.9219C1.35156 12.8008 1.94922 13.5742 2.51172 14.2422C2.79297 14.5586 3.25 14.6289 3.60156 14.418L4.62109 13.8555C5.18359 14.3125 5.81641 14.6992 6.55469 14.9453V16.1406C6.55469 16.5625 6.83594 16.9141 7.25781 16.9844C8.13672 17.125 9.05078 17.125 9.89453 16.9844C10.3164 16.9141 10.5977 16.5625 10.5977 16.1406V14.9453C11.3008 14.6992 11.9688 14.3125 12.5312 13.8555L13.5508 14.4531C13.9023 14.6289 14.3594 14.5586 14.6055 14.2422C15.2031 13.5742 15.8008 12.8008 16.1172 11.9219C16.2578 11.5352 16.1172 11.1133 15.7656 10.9023L14.5703 10.3398ZM10.4219 11.0781C7.71484 13.1523 4.62109 10.0586 6.73047 7.35156C9.4375 5.27734 12.4961 8.37109 10.4219 11.0781ZM19 17.4766C19.3516 17.5469 19.7383 17.5469 20.0898 17.4766L20.4062 18.0039C20.5117 18.1797 20.7227 18.25 20.9336 18.1797C21.3203 18.0391 21.707 17.793 22.0586 17.5117C22.1992 17.4062 22.2695 17.1602 22.1641 16.9844L21.8477 16.457C22.0938 16.1758 22.3047 15.8594 22.4102 15.5078H23.0078C23.2188 15.5078 23.3945 15.3672 23.4297 15.1562C23.5 14.6992 23.5 14.2773 23.4297 13.8555C23.3945 13.6445 23.2188 13.4688 23.0078 13.4688H22.4102C22.3047 13.1172 22.0938 12.8008 21.8477 12.5195L22.1641 12.0273C22.2695 11.8164 22.1992 11.6055 22.0586 11.4648C21.707 11.1836 21.3203 10.9727 20.9336 10.7969C20.7227 10.7266 20.5117 10.7969 20.4062 11.0078L20.0898 11.5C19.7383 11.4297 19.3516 11.4297 19 11.5L18.6836 11.0078C18.5781 10.7969 18.3672 10.7266 18.1562 10.7969C17.7695 10.9727 17.3828 11.1836 17.0312 11.4648C16.8906 11.6055 16.8203 11.8164 16.9258 12.0273L17.2422 12.5195C16.9961 12.8008 16.7852 13.1172 16.6797 13.4688H16.082C15.8711 13.4688 15.6953 13.6445 15.6602 13.8555C15.5898 14.2773 15.5898 14.7344 15.6602 15.1562C15.6953 15.3672 15.8711 15.5078 16.082 15.5078H16.6797C16.7852 15.8594 16.9961 16.1758 17.2422 16.457L16.9258 16.9844C16.8203 17.1602 16.8906 17.4062 17.0312 17.5117C17.3828 17.793 17.7695 18.0391 18.1562 18.1797C18.3672 18.25 18.5781 18.1797 18.6836 18.0039L19 17.4766ZM18.6133 15.4023C17.5938 14.0664 19.1055 12.5195 20.4766 13.5742C21.5312 14.9102 19.9844 16.457 18.6133 15.4023Z" />
</svg>
